<svg xmlns="http://www.w3.org/2000/svg" width="120" height="16" fill="none"><defs/><path fill="#999" fill-rule="evenodd" d="M7.393 0c1.09 0 2.012.249 2.765.746.754.498 1.303 1.231 1.645 2.2l.304.832L7.868 5.27c.013-.063.02-.145.02-.247 0-.1-.039-.268-.115-.502a1.517 1.517 0 00-.304-.559.799.799 0 00-.608-.265c-.697 0-1.26.5-1.691 1.5-.292.697-.52 1.61-.685 2.737-.076.468-.126.81-.152 1.025a10.532 10.532 0 00-.114 1.368c0 .596.086 1.074.257 1.435.171.36.472.541.903.541.342 0 .693-.182 1.054-.545.362-.362.58-.78.656-1.252l.076-.497h-1.54l.514-3.204h5.835l-.248 1.46c-.342 2.225-1.02 4.007-2.033 5.346C8.489 15.204 6.905 16 4.942 16c-1.762 0-3.06-.625-3.897-1.875C.348 13.09 0 11.702 0 9.96a11.552 11.552 0 01.133-1.78C.45 5.87 1.185 3.984 2.338 2.52 3.655.838 5.34 0 7.393 0zm107.893 0c1.09 0 2.012.249 2.766.746.753.498 1.302 1.231 1.644 2.2l.304.832-4.238 1.492c.012-.063.019-.145.019-.247 0-.1-.038-.268-.114-.502a1.526 1.526 0 00-.304-.559.8.8 0 00-.609-.265c-.697 0-1.26.5-1.691 1.5-.292.697-.52 1.61-.684 2.737-.076.468-.127.81-.152 1.025a10.538 10.538 0 00-.114 1.368c0 .596.085 1.074.256 1.435.171.36.472.541.903.541.342 0 .694-.182 1.055-.545a2.26 2.26 0 00.656-1.252l.075-.497h-1.539l.513-3.204h5.835l-.247 1.46c-.342 2.225-1.02 4.007-2.034 5.346-1.204 1.593-2.787 2.389-4.751 2.389-1.762 0-3.06-.625-3.896-1.875-.697-1.035-1.046-2.423-1.046-4.166a11.829 11.829 0 01.133-1.78c.317-2.31 1.052-4.196 2.205-5.66C111.549.838 113.234 0 115.286 0zM22.94.265l-.57 3.697h-3.611l-.343 2.047h3.193l-.57 3.697h-3.212L17.467 12h3.572l-.589 3.697h-7.678L15.242.264h7.698zm10.51 0l-.59 3.697h-2.394l-1.9 11.735h-4.22l1.9-11.735-2.29-.001.617-3.696h8.877zm15.622 0l-.59 3.697h-2.394l-1.9 11.735h-4.22l1.9-11.735-2.29-.001.618-3.696h8.876zm6.215 0c1.989 0 3.427.36 4.314 1.08.773.63 1.16 1.552 1.16 2.764 0 .379-.039.789-.115 1.23-.14.809-.399 1.516-.779 2.121a4.022 4.022 0 01-1.787 1.59l-.437.19 2.053 6.457H55.21l-.59-2.56c-.063-.315-.215-1.124-.456-2.426-.05-.329-.133-.777-.247-1.346a81.85 81.85 0 00-.17 1.346c-.115.796-.242 1.611-.38 2.445-.065.43-.16.98-.286 1.65-.038.215-.095.512-.171.89H48.73L51.22.267h4.067zm16.572 0l.875 15.432h-4.296v-1.953h-2.832l-.684 1.953h-4.276L66.766.265h5.093zm8.819 0c1.976 0 3.478.65 4.504 1.95.9 1.137 1.35 2.614 1.35 4.431 0 .417-.032.878-.095 1.382-.305 2.285-1.097 4.09-2.376 5.415-1.445 1.503-3.396 2.254-5.854 2.254h-3.725L76.934.265h3.744zm13.456 0l-2.528 15.431h-4.181L89.933.267h4.2zm6.366 0l.894 4.257.95 5.108.152-1.892c.114-1.374.221-2.522.323-3.443.063-.593.171-1.457.323-2.592.038-.353.102-.832.19-1.438h3.991l-2.451 15.431h-3.916a12.447 12.447 0 01-.17-.758c-.317-1.415-.52-2.35-.609-2.806a99.51 99.51 0 01-.627-3.469l-.304-1.914c-.076.77-.133 1.384-.171 1.839a73.607 73.607 0 01-.361 3.146 91.056 91.056 0 01-.418 2.617c-.051.329-.133.777-.247 1.345h-3.954L96.547.267h3.953zM80.64 4.133h-.114L79.27 12h.133c.735 0 1.356-.415 1.863-1.245.418-.68.71-1.522.874-2.529.076-.44.114-.911.114-1.415 0-.792-.108-1.408-.323-1.849-.279-.553-.71-.83-1.292-.83zM68.666 4l-2.014 6.502h1.786L68.666 4zm-13.455-.474h-.362l-.608 3.848h.456c.457 0 .862-.22 1.217-.66.316-.39.52-.849.608-1.377a3.05 3.05 0 00.038-.377c0-.44-.13-.79-.39-1.047a1.31 1.31 0 00-.96-.387z" clip-rule="evenodd"/></svg>