<svg xmlns="http://www.w3.org/2000/svg" width="125" height="27" fill="none"><defs/><path fill="#fff" d="M104.883 0l3.62 18.88L118.67 0h6.254l-15.343 27h-5.123L98.481 0h6.402zM14.931 0c8.279 0 13.01 5.782 11.703 13.327l-.014.076C25.31 20.95 18.57 26.81 10.282 26.81H0L4.647 0h10.284zm57.22 0c3.352 0 5.784.959 7.203 2.72 1.21 1.492 1.64 3.6 1.197 6.127l-.013.077c-.742 4.326-3.51 7.046-7.082 8.311l4.778 9.574h-6.78l-6.31-13.793h4.364c2.826 0 4.712-1.541 5.103-3.791l.014-.076c.438-2.523-1.07-3.825-3.895-3.825h-5.754l-3.727 21.485h-5.8L60.096 0H72.15zm21.62 0l-4.647 26.809h-5.802L87.972 0h5.8zm-39.4 0l-.912 5.247H39.337l-.945 5.438h9.118l-.91 5.247h-9.117l-.976 5.625h14.313l-.91 5.247H29.835L34.48 0h19.89zM14.008 5.324H9.527L6.723 21.485h4.484c4.744 0 8.51-3.255 9.334-8.005l.013-.077c.824-4.747-1.799-8.08-6.546-8.08z"/></svg>